<mxfile host="app.diagrams.net" modified="2023-01-10T08:29:23.786Z" agent="5.0 (Windows NT 10.0; Win64; x64) AppleWebKit/537.36 (KHTML, like Gecko) Chrome/108.0.0.0 Safari/537.36 Edg/108.0.1462.76" etag="nODIi-xjXovp9KUdNDT5" version="20.8.3" type="github">
  <diagram id="DqQ9brY9TlfN3EwlFTgr" name="페이지-1">
    <mxGraphModel dx="2326" dy="887" grid="1" gridSize="10" guides="1" tooltips="1" connect="1" arrows="1" fold="1" page="1" pageScale="1" pageWidth="827" pageHeight="1169" math="0" shadow="0">
      <root>
        <mxCell id="0" />
        <mxCell id="1" parent="0" />
        <mxCell id="fvSdaWqqt0YrtRtZSycq-1" value="사용자" style="shape=umlActor;verticalLabelPosition=bottom;verticalAlign=top;html=1;outlineConnect=0;rounded=1;" vertex="1" parent="1">
          <mxGeometry x="400" y="20" width="30" height="60" as="geometry" />
        </mxCell>
        <mxCell id="fvSdaWqqt0YrtRtZSycq-2" value="스트릭" style="rounded=1;whiteSpace=wrap;html=1;fillColor=#f8cecc;strokeColor=#b85450;" vertex="1" parent="1">
          <mxGeometry x="1370" y="275" width="120" height="60" as="geometry" />
        </mxCell>
        <mxCell id="fvSdaWqqt0YrtRtZSycq-3" value="서비스 접속" style="rounded=1;whiteSpace=wrap;html=1;" vertex="1" parent="1">
          <mxGeometry x="355" y="120" width="120" height="60" as="geometry" />
        </mxCell>
        <mxCell id="fvSdaWqqt0YrtRtZSycq-4" value="" style="edgeStyle=orthogonalEdgeStyle;rounded=1;orthogonalLoop=1;jettySize=auto;html=1;fillColor=#f8cecc;strokeColor=#b85450;" edge="1" parent="1" source="fvSdaWqqt0YrtRtZSycq-10" target="fvSdaWqqt0YrtRtZSycq-16">
          <mxGeometry relative="1" as="geometry" />
        </mxCell>
        <mxCell id="fvSdaWqqt0YrtRtZSycq-5" style="edgeStyle=orthogonalEdgeStyle;rounded=1;orthogonalLoop=1;jettySize=auto;html=1;entryX=0.5;entryY=0;entryDx=0;entryDy=0;startArrow=none;exitX=0.463;exitY=0.892;exitDx=0;exitDy=0;exitPerimeter=0;" edge="1" parent="1" source="fvSdaWqqt0YrtRtZSycq-59" target="fvSdaWqqt0YrtRtZSycq-54">
          <mxGeometry relative="1" as="geometry">
            <mxPoint x="535" y="770" as="targetPoint" />
            <mxPoint x="590" y="450" as="sourcePoint" />
          </mxGeometry>
        </mxCell>
        <mxCell id="fvSdaWqqt0YrtRtZSycq-6" style="edgeStyle=orthogonalEdgeStyle;rounded=1;orthogonalLoop=1;jettySize=auto;html=1;exitX=1;exitY=0.75;exitDx=0;exitDy=0;entryX=0;entryY=0.5;entryDx=0;entryDy=0;fillColor=#f8cecc;strokeColor=#b85450;" edge="1" parent="1" source="fvSdaWqqt0YrtRtZSycq-10" target="fvSdaWqqt0YrtRtZSycq-18">
          <mxGeometry relative="1" as="geometry">
            <Array as="points">
              <mxPoint x="1480" y="690" />
            </Array>
          </mxGeometry>
        </mxCell>
        <mxCell id="fvSdaWqqt0YrtRtZSycq-7" style="edgeStyle=orthogonalEdgeStyle;rounded=1;orthogonalLoop=1;jettySize=auto;html=1;entryX=0;entryY=0.5;entryDx=0;entryDy=0;exitX=1.003;exitY=0.373;exitDx=0;exitDy=0;exitPerimeter=0;fillColor=#dae8fc;strokeColor=#6c8ebf;" edge="1" parent="1" source="fvSdaWqqt0YrtRtZSycq-59" target="fvSdaWqqt0YrtRtZSycq-37">
          <mxGeometry relative="1" as="geometry" />
        </mxCell>
        <mxCell id="fvSdaWqqt0YrtRtZSycq-8" style="edgeStyle=orthogonalEdgeStyle;rounded=1;orthogonalLoop=1;jettySize=auto;html=1;exitX=0.75;exitY=1;exitDx=0;exitDy=0;" edge="1" parent="1" source="fvSdaWqqt0YrtRtZSycq-10" target="fvSdaWqqt0YrtRtZSycq-22">
          <mxGeometry relative="1" as="geometry">
            <Array as="points">
              <mxPoint x="1390" y="750" />
              <mxPoint x="1560" y="750" />
            </Array>
          </mxGeometry>
        </mxCell>
        <mxCell id="fvSdaWqqt0YrtRtZSycq-9" value="로그인" style="rounded=1;whiteSpace=wrap;html=1;fillColor=#dae8fc;strokeColor=#6c8ebf;gradientColor=#ffffff;" vertex="1" parent="1">
          <mxGeometry x="475" y="210" width="120" height="60" as="geometry" />
        </mxCell>
        <mxCell id="fvSdaWqqt0YrtRtZSycq-10" value="같이 강의 보기&lt;br&gt;" style="rounded=1;whiteSpace=wrap;html=1;fillColor=#f8cecc;strokeColor=#b85450;gradientColor=#fffafa;" vertex="1" parent="1">
          <mxGeometry x="1220" y="635" width="120" height="60" as="geometry" />
        </mxCell>
        <mxCell id="fvSdaWqqt0YrtRtZSycq-11" style="edgeStyle=orthogonalEdgeStyle;rounded=1;orthogonalLoop=1;jettySize=auto;html=1;exitX=0.5;exitY=1;exitDx=0;exitDy=0;entryX=0.5;entryY=0;entryDx=0;entryDy=0;fillColor=#dae8fc;strokeColor=#6c8ebf;" edge="1" parent="1" source="fvSdaWqqt0YrtRtZSycq-13" target="fvSdaWqqt0YrtRtZSycq-19">
          <mxGeometry relative="1" as="geometry" />
        </mxCell>
        <mxCell id="fvSdaWqqt0YrtRtZSycq-12" value="질문 공유, 대답" style="rounded=1;whiteSpace=wrap;html=1;fillColor=#f8cecc;strokeColor=#b85450;gradientColor=#fffafa;" vertex="1" parent="1">
          <mxGeometry x="1270" y="470" width="120" height="60" as="geometry" />
        </mxCell>
        <mxCell id="fvSdaWqqt0YrtRtZSycq-13" value="로그인X" style="rounded=1;whiteSpace=wrap;html=1;fillColor=#dae8fc;strokeColor=#6c8ebf;gradientColor=#ffffff;" vertex="1" parent="1">
          <mxGeometry x="230" y="210" width="120" height="60" as="geometry" />
        </mxCell>
        <mxCell id="fvSdaWqqt0YrtRtZSycq-14" value="스터디 뱃지" style="whiteSpace=wrap;html=1;rounded=1;fillColor=#f8cecc;strokeColor=#b85450;" vertex="1" parent="1">
          <mxGeometry x="1370" y="180" width="120" height="60" as="geometry" />
        </mxCell>
        <mxCell id="fvSdaWqqt0YrtRtZSycq-15" value="회원 탈퇴&lt;br&gt;" style="rounded=1;whiteSpace=wrap;html=1;fillColor=#e1d5e7;strokeColor=#9673a6;gradientColor=#fdf7f7;" vertex="1" parent="1">
          <mxGeometry x="730" y="1290" width="120" height="60" as="geometry" />
        </mxCell>
        <mxCell id="fvSdaWqqt0YrtRtZSycq-16" value="실시간채팅" style="whiteSpace=wrap;html=1;rounded=1;fillColor=#f8cecc;strokeColor=#b85450;" vertex="1" parent="1">
          <mxGeometry x="1500" y="520" width="120" height="60" as="geometry" />
        </mxCell>
        <mxCell id="fvSdaWqqt0YrtRtZSycq-17" style="edgeStyle=orthogonalEdgeStyle;rounded=1;orthogonalLoop=1;jettySize=auto;html=1;exitX=1;exitY=0.5;exitDx=0;exitDy=0;entryX=0;entryY=0.5;entryDx=0;entryDy=0;fillColor=#dae8fc;strokeColor=#6c8ebf;" edge="1" parent="1" source="fvSdaWqqt0YrtRtZSycq-19" target="fvSdaWqqt0YrtRtZSycq-59">
          <mxGeometry relative="1" as="geometry" />
        </mxCell>
        <mxCell id="fvSdaWqqt0YrtRtZSycq-18" value="강의 시간 북마크" style="whiteSpace=wrap;html=1;rounded=1;fillColor=#f8cecc;strokeColor=#b85450;" vertex="1" parent="1">
          <mxGeometry x="1500" y="660" width="120" height="60" as="geometry" />
        </mxCell>
        <mxCell id="fvSdaWqqt0YrtRtZSycq-19" value="회원가입" style="rounded=1;whiteSpace=wrap;html=1;fillColor=#dae8fc;strokeColor=#6c8ebf;gradientColor=#ffffff;" vertex="1" parent="1">
          <mxGeometry x="230" y="320" width="120" height="60" as="geometry" />
        </mxCell>
        <mxCell id="fvSdaWqqt0YrtRtZSycq-20" value="" style="edgeStyle=orthogonalEdgeStyle;rounded=1;orthogonalLoop=1;jettySize=auto;html=1;fillColor=#f8cecc;strokeColor=#b85450;" edge="1" parent="1" source="fvSdaWqqt0YrtRtZSycq-22" target="fvSdaWqqt0YrtRtZSycq-24">
          <mxGeometry relative="1" as="geometry" />
        </mxCell>
        <mxCell id="fvSdaWqqt0YrtRtZSycq-21" value="챗봇&lt;br&gt;" style="rounded=1;whiteSpace=wrap;html=1;" vertex="1" parent="1">
          <mxGeometry x="300" y="660" width="120" height="60" as="geometry" />
        </mxCell>
        <mxCell id="fvSdaWqqt0YrtRtZSycq-22" value="강좌 필기" style="whiteSpace=wrap;html=1;rounded=1;fillColor=#f8cecc;strokeColor=#b85450;" vertex="1" parent="1">
          <mxGeometry x="1500" y="800" width="120" height="60" as="geometry" />
        </mxCell>
        <mxCell id="fvSdaWqqt0YrtRtZSycq-23" style="edgeStyle=orthogonalEdgeStyle;rounded=1;orthogonalLoop=1;jettySize=auto;html=1;exitX=0.5;exitY=1;exitDx=0;exitDy=0;entryX=0.5;entryY=0;entryDx=0;entryDy=0;" edge="1" parent="1" target="fvSdaWqqt0YrtRtZSycq-75">
          <mxGeometry relative="1" as="geometry">
            <mxPoint x="535" y="830" as="sourcePoint" />
          </mxGeometry>
        </mxCell>
        <mxCell id="fvSdaWqqt0YrtRtZSycq-24" value="강좌 캡쳐" style="whiteSpace=wrap;html=1;rounded=1;fillColor=#f8cecc;strokeColor=#b85450;" vertex="1" parent="1">
          <mxGeometry x="1300" y="800" width="120" height="60" as="geometry" />
        </mxCell>
        <mxCell id="fvSdaWqqt0YrtRtZSycq-25" value="참여중인 스터디" style="rounded=1;whiteSpace=wrap;html=1;fillColor=#e1d5e7;strokeColor=#9673a6;gradientColor=#fdf7f7;" vertex="1" parent="1">
          <mxGeometry x="720" y="1580" width="120" height="60" as="geometry" />
        </mxCell>
        <mxCell id="fvSdaWqqt0YrtRtZSycq-26" style="edgeStyle=orthogonalEdgeStyle;rounded=1;orthogonalLoop=1;jettySize=auto;html=1;exitX=0.5;exitY=1;exitDx=0;exitDy=0;entryX=0.5;entryY=0;entryDx=0;entryDy=0;" edge="1" parent="1" target="fvSdaWqqt0YrtRtZSycq-97">
          <mxGeometry relative="1" as="geometry">
            <mxPoint x="535" y="830" as="sourcePoint" />
          </mxGeometry>
        </mxCell>
        <mxCell id="fvSdaWqqt0YrtRtZSycq-27" style="edgeStyle=orthogonalEdgeStyle;rounded=1;orthogonalLoop=1;jettySize=auto;html=1;exitX=1;exitY=0.5;exitDx=0;exitDy=0;entryX=0;entryY=0.5;entryDx=0;entryDy=0;fontSize=31;" edge="1" parent="1">
          <mxGeometry relative="1" as="geometry">
            <mxPoint x="595" y="800" as="sourcePoint" />
            <mxPoint x="680" y="700" as="targetPoint" />
            <Array as="points">
              <mxPoint x="630" y="800" />
              <mxPoint x="630" y="700" />
            </Array>
          </mxGeometry>
        </mxCell>
        <mxCell id="fvSdaWqqt0YrtRtZSycq-28" value="회원 정보 조회&amp;nbsp;" style="rounded=1;whiteSpace=wrap;html=1;fillColor=#e1d5e7;strokeColor=#9673a6;gradientColor=#fdf7f7;" vertex="1" parent="1">
          <mxGeometry x="861.5" y="1332" width="120" height="60" as="geometry" />
        </mxCell>
        <mxCell id="fvSdaWqqt0YrtRtZSycq-29" value="아이디 찾기&lt;br&gt;" style="rounded=1;whiteSpace=wrap;html=1;fillColor=#dae8fc;strokeColor=#6c8ebf;gradientColor=#ffffff;" vertex="1" parent="1">
          <mxGeometry x="690" y="300" width="120" height="60" as="geometry" />
        </mxCell>
        <mxCell id="fvSdaWqqt0YrtRtZSycq-30" value="비밀번호 찾기&lt;br&gt;" style="rounded=1;whiteSpace=wrap;html=1;fillColor=#dae8fc;strokeColor=#6c8ebf;gradientColor=#ffffff;" vertex="1" parent="1">
          <mxGeometry x="690" y="380" width="120" height="60" as="geometry" />
        </mxCell>
        <mxCell id="fvSdaWqqt0YrtRtZSycq-31" value="회원정보 변경&lt;br&gt;" style="rounded=1;whiteSpace=wrap;html=1;fillColor=#e1d5e7;strokeColor=#9673a6;gradientColor=#fdf7f7;" vertex="1" parent="1">
          <mxGeometry x="950" y="1460" width="120" height="60" as="geometry" />
        </mxCell>
        <mxCell id="fvSdaWqqt0YrtRtZSycq-32" value="" style="shape=flexArrow;endArrow=classic;html=1;rounded=1;entryX=0.5;entryY=0;entryDx=0;entryDy=0;exitX=0;exitY=0.5;exitDx=0;exitDy=0;fillColor=#dae8fc;strokeColor=#6c8ebf;" edge="1" parent="1" source="fvSdaWqqt0YrtRtZSycq-3" target="fvSdaWqqt0YrtRtZSycq-13">
          <mxGeometry width="50" height="50" relative="1" as="geometry">
            <mxPoint x="350" y="150" as="sourcePoint" />
            <mxPoint x="280" y="170" as="targetPoint" />
          </mxGeometry>
        </mxCell>
        <mxCell id="fvSdaWqqt0YrtRtZSycq-33" value="" style="shape=flexArrow;endArrow=classic;html=1;rounded=1;entryX=0.5;entryY=0;entryDx=0;entryDy=0;exitX=1;exitY=0.5;exitDx=0;exitDy=0;fillColor=#dae8fc;strokeColor=#6c8ebf;" edge="1" parent="1" source="fvSdaWqqt0YrtRtZSycq-3" target="fvSdaWqqt0YrtRtZSycq-9">
          <mxGeometry width="50" height="50" relative="1" as="geometry">
            <mxPoint x="360" y="160" as="sourcePoint" />
            <mxPoint x="300" y="220" as="targetPoint" />
          </mxGeometry>
        </mxCell>
        <mxCell id="fvSdaWqqt0YrtRtZSycq-34" style="edgeStyle=orthogonalEdgeStyle;rounded=1;orthogonalLoop=1;jettySize=auto;html=1;entryX=0.5;entryY=0;entryDx=0;entryDy=0;fillColor=#fff2cc;strokeColor=#d6b656;" edge="1" parent="1" source="fvSdaWqqt0YrtRtZSycq-35" target="fvSdaWqqt0YrtRtZSycq-55">
          <mxGeometry relative="1" as="geometry">
            <mxPoint x="608.25" y="1308.5" as="targetPoint" />
          </mxGeometry>
        </mxCell>
        <mxCell id="fvSdaWqqt0YrtRtZSycq-35" value="강의에 대한 질문하기" style="rounded=1;whiteSpace=wrap;html=1;fillColor=#fff2cc;strokeColor=#d6b656;gradientColor=#fcf7f7;" vertex="1" parent="1">
          <mxGeometry x="413.25" y="1172" width="120" height="55" as="geometry" />
        </mxCell>
        <mxCell id="fvSdaWqqt0YrtRtZSycq-36" style="edgeStyle=orthogonalEdgeStyle;rounded=1;orthogonalLoop=1;jettySize=auto;html=1;entryX=1;entryY=0.25;entryDx=0;entryDy=0;fillColor=#dae8fc;strokeColor=#6c8ebf;" edge="1" parent="1" source="fvSdaWqqt0YrtRtZSycq-37" target="fvSdaWqqt0YrtRtZSycq-3">
          <mxGeometry relative="1" as="geometry" />
        </mxCell>
        <mxCell id="fvSdaWqqt0YrtRtZSycq-37" value="로그아웃" style="rounded=1;whiteSpace=wrap;html=1;fillColor=#dae8fc;strokeColor=#6c8ebf;gradientColor=#ffffff;" vertex="1" parent="1">
          <mxGeometry x="670" y="140" width="120" height="60" as="geometry" />
        </mxCell>
        <mxCell id="fvSdaWqqt0YrtRtZSycq-38" style="edgeStyle=orthogonalEdgeStyle;rounded=1;orthogonalLoop=1;jettySize=auto;html=1;exitX=0;exitY=0.5;exitDx=0;exitDy=0;entryX=0.5;entryY=0;entryDx=0;entryDy=0;fontSize=31;fillColor=#fff2cc;strokeColor=#d6b656;" edge="1" parent="1" source="fvSdaWqqt0YrtRtZSycq-39" target="fvSdaWqqt0YrtRtZSycq-103">
          <mxGeometry relative="1" as="geometry" />
        </mxCell>
        <mxCell id="fvSdaWqqt0YrtRtZSycq-39" value="강좌" style="rounded=1;whiteSpace=wrap;html=1;fillColor=#fff2cc;strokeColor=#d6b656;gradientColor=#fcfcfc;" vertex="1" parent="1">
          <mxGeometry x="382.25" y="1030" width="120" height="70" as="geometry" />
        </mxCell>
        <mxCell id="fvSdaWqqt0YrtRtZSycq-40" style="edgeStyle=orthogonalEdgeStyle;rounded=1;orthogonalLoop=1;jettySize=auto;html=1;entryX=0.25;entryY=1;entryDx=0;entryDy=0;fillColor=#e1d5e7;strokeColor=#9673a6;" edge="1" parent="1" source="fvSdaWqqt0YrtRtZSycq-60" target="fvSdaWqqt0YrtRtZSycq-28">
          <mxGeometry relative="1" as="geometry" />
        </mxCell>
        <mxCell id="fvSdaWqqt0YrtRtZSycq-41" value="" style="rounded=1;whiteSpace=wrap;html=1;fillColor=#fff2cc;strokeColor=#d6b656;gradientColor=#fcfcfc;" vertex="1" parent="1">
          <mxGeometry x="393.25" y="1042" width="120" height="60" as="geometry" />
        </mxCell>
        <mxCell id="fvSdaWqqt0YrtRtZSycq-42" value="" style="rounded=1;whiteSpace=wrap;html=1;fillColor=#fff2cc;strokeColor=#d6b656;gradientColor=#fcfcfc;" vertex="1" parent="1">
          <mxGeometry x="403.25" y="1052" width="120" height="60" as="geometry" />
        </mxCell>
        <mxCell id="fvSdaWqqt0YrtRtZSycq-43" style="edgeStyle=orthogonalEdgeStyle;rounded=1;orthogonalLoop=1;jettySize=auto;html=1;exitX=0.5;exitY=1;exitDx=0;exitDy=0;entryX=0.5;entryY=0;entryDx=0;entryDy=0;fillColor=#fff2cc;strokeColor=#d6b656;" edge="1" parent="1" source="fvSdaWqqt0YrtRtZSycq-44" target="fvSdaWqqt0YrtRtZSycq-35">
          <mxGeometry relative="1" as="geometry" />
        </mxCell>
        <mxCell id="fvSdaWqqt0YrtRtZSycq-44" value="강좌" style="rounded=1;whiteSpace=wrap;html=1;fillColor=#fff2cc;strokeColor=#d6b656;gradientColor=#faf9f9;" vertex="1" parent="1">
          <mxGeometry x="413.25" y="1060" width="120" height="60" as="geometry" />
        </mxCell>
        <mxCell id="fvSdaWqqt0YrtRtZSycq-45" style="edgeStyle=orthogonalEdgeStyle;rounded=1;orthogonalLoop=1;jettySize=auto;html=1;exitX=1;exitY=0.5;exitDx=0;exitDy=0;entryX=0;entryY=0.5;entryDx=0;entryDy=0;fontSize=31;fillColor=#f8cecc;strokeColor=#b85450;" edge="1" parent="1" target="fvSdaWqqt0YrtRtZSycq-49">
          <mxGeometry relative="1" as="geometry">
            <mxPoint x="800" y="700" as="sourcePoint" />
          </mxGeometry>
        </mxCell>
        <mxCell id="fvSdaWqqt0YrtRtZSycq-46" value="스터디 둘러보기" style="rounded=1;whiteSpace=wrap;html=1;fillColor=#f8cecc;strokeColor=#b85450;gradientColor=#fbf4f4;" vertex="1" parent="1">
          <mxGeometry x="880" y="750" width="120" height="60" as="geometry" />
        </mxCell>
        <mxCell id="fvSdaWqqt0YrtRtZSycq-47" style="edgeStyle=orthogonalEdgeStyle;rounded=1;orthogonalLoop=1;jettySize=auto;html=1;exitX=1;exitY=0.5;exitDx=0;exitDy=0;entryX=0;entryY=0.5;entryDx=0;entryDy=0;fillColor=#f8cecc;strokeColor=#b85450;" edge="1" parent="1" source="fvSdaWqqt0YrtRtZSycq-49" target="fvSdaWqqt0YrtRtZSycq-79">
          <mxGeometry relative="1" as="geometry" />
        </mxCell>
        <mxCell id="fvSdaWqqt0YrtRtZSycq-48" style="edgeStyle=orthogonalEdgeStyle;rounded=1;orthogonalLoop=1;jettySize=auto;html=1;exitX=0.5;exitY=1;exitDx=0;exitDy=0;entryX=0;entryY=0.5;entryDx=0;entryDy=0;fontSize=31;fillColor=#f8cecc;strokeColor=#b85450;" edge="1" parent="1" source="fvSdaWqqt0YrtRtZSycq-49" target="fvSdaWqqt0YrtRtZSycq-83">
          <mxGeometry relative="1" as="geometry" />
        </mxCell>
        <mxCell id="fvSdaWqqt0YrtRtZSycq-49" value="스터디 만들기&lt;br&gt;" style="rounded=1;whiteSpace=wrap;html=1;fillColor=#f8cecc;strokeColor=#b85450;gradientColor=#fffafa;" vertex="1" parent="1">
          <mxGeometry x="880" y="555" width="120" height="60" as="geometry" />
        </mxCell>
        <mxCell id="fvSdaWqqt0YrtRtZSycq-50" style="edgeStyle=orthogonalEdgeStyle;rounded=1;orthogonalLoop=1;jettySize=auto;html=1;exitX=0;exitY=0.5;exitDx=0;exitDy=0;fontSize=31;" edge="1" parent="1" source="fvSdaWqqt0YrtRtZSycq-54" target="fvSdaWqqt0YrtRtZSycq-104">
          <mxGeometry relative="1" as="geometry">
            <mxPoint x="420" y="650" as="targetPoint" />
            <Array as="points">
              <mxPoint x="473" y="800" />
              <mxPoint x="200" y="800" />
            </Array>
          </mxGeometry>
        </mxCell>
        <mxCell id="fvSdaWqqt0YrtRtZSycq-51" style="edgeStyle=orthogonalEdgeStyle;rounded=1;orthogonalLoop=1;jettySize=auto;html=1;entryX=0;entryY=0.25;entryDx=0;entryDy=0;exitX=1;exitY=0.5;exitDx=0;exitDy=0;" edge="1" parent="1" source="fvSdaWqqt0YrtRtZSycq-54" target="fvSdaWqqt0YrtRtZSycq-60">
          <mxGeometry relative="1" as="geometry">
            <mxPoint x="561.5" y="1165" as="sourcePoint" />
          </mxGeometry>
        </mxCell>
        <mxCell id="fvSdaWqqt0YrtRtZSycq-52" style="edgeStyle=orthogonalEdgeStyle;rounded=1;orthogonalLoop=1;jettySize=auto;html=1;" edge="1" parent="1" source="fvSdaWqqt0YrtRtZSycq-54" target="fvSdaWqqt0YrtRtZSycq-21">
          <mxGeometry relative="1" as="geometry">
            <Array as="points">
              <mxPoint x="360" y="790" />
            </Array>
          </mxGeometry>
        </mxCell>
        <mxCell id="fvSdaWqqt0YrtRtZSycq-53" style="edgeStyle=orthogonalEdgeStyle;rounded=1;orthogonalLoop=1;jettySize=auto;html=1;entryX=1;entryY=0.5;entryDx=0;entryDy=0;" edge="1" parent="1" source="fvSdaWqqt0YrtRtZSycq-54" target="fvSdaWqqt0YrtRtZSycq-102">
          <mxGeometry relative="1" as="geometry">
            <Array as="points">
              <mxPoint x="267" y="820" />
              <mxPoint x="267" y="880" />
            </Array>
          </mxGeometry>
        </mxCell>
        <mxCell id="fvSdaWqqt0YrtRtZSycq-54" value="메인페이지" style="shape=document;whiteSpace=wrap;html=1;boundedLbl=1;fillColor=#f8cecc;strokeColor=#b85450;rounded=1;" vertex="1" parent="1">
          <mxGeometry x="470" y="775" width="120" height="80" as="geometry" />
        </mxCell>
        <mxCell id="fvSdaWqqt0YrtRtZSycq-55" value="수강생들사이의&lt;br&gt;질의응답" style="rounded=1;whiteSpace=wrap;html=1;fillColor=#fff2cc;strokeColor=#d6b656;gradientColor=#fcf7f7;" vertex="1" parent="1">
          <mxGeometry x="413.25" y="1288.5" width="120" height="60" as="geometry" />
        </mxCell>
        <mxCell id="fvSdaWqqt0YrtRtZSycq-56" style="edgeStyle=orthogonalEdgeStyle;rounded=1;orthogonalLoop=1;jettySize=auto;html=1;exitX=1;exitY=0.5;exitDx=0;exitDy=0;entryX=0;entryY=0.5;entryDx=0;entryDy=0;fontSize=31;fillColor=#dae8fc;strokeColor=#6c8ebf;" edge="1" parent="1" source="fvSdaWqqt0YrtRtZSycq-59" target="fvSdaWqqt0YrtRtZSycq-29">
          <mxGeometry relative="1" as="geometry" />
        </mxCell>
        <mxCell id="fvSdaWqqt0YrtRtZSycq-57" style="edgeStyle=orthogonalEdgeStyle;rounded=1;orthogonalLoop=1;jettySize=auto;html=1;exitX=1;exitY=0.5;exitDx=0;exitDy=0;fontSize=31;fillColor=#dae8fc;strokeColor=#6c8ebf;" edge="1" parent="1" source="fvSdaWqqt0YrtRtZSycq-59" target="fvSdaWqqt0YrtRtZSycq-30">
          <mxGeometry relative="1" as="geometry" />
        </mxCell>
        <mxCell id="fvSdaWqqt0YrtRtZSycq-58" style="edgeStyle=orthogonalEdgeStyle;rounded=1;orthogonalLoop=1;jettySize=auto;html=1;entryX=1;entryY=0.5;entryDx=0;entryDy=0;" edge="1" parent="1" source="fvSdaWqqt0YrtRtZSycq-60" target="fvSdaWqqt0YrtRtZSycq-65">
          <mxGeometry relative="1" as="geometry" />
        </mxCell>
        <mxCell id="fvSdaWqqt0YrtRtZSycq-59" value="로그인 페이지" style="shape=document;whiteSpace=wrap;html=1;boundedLbl=1;fillColor=#dae8fc;strokeColor=#6c8ebf;gradientColor=#ffffff;rounded=1;" vertex="1" parent="1">
          <mxGeometry x="475" y="330" width="120" height="80" as="geometry" />
        </mxCell>
        <mxCell id="fvSdaWqqt0YrtRtZSycq-60" value="마이페이지" style="shape=document;whiteSpace=wrap;html=1;boundedLbl=1;fillColor=#e1d5e7;strokeColor=#9673a6;gradientColor=#fdfcfc;rounded=1;" vertex="1" parent="1">
          <mxGeometry x="730" y="1410" width="120" height="80" as="geometry" />
        </mxCell>
        <mxCell id="fvSdaWqqt0YrtRtZSycq-61" value="관심 분야 선택&lt;br&gt;" style="rounded=1;whiteSpace=wrap;html=1;fillColor=#f8cecc;strokeColor=#b85450;gradientColor=#fffafa;" vertex="1" parent="1">
          <mxGeometry x="1031" y="405" width="120" height="60" as="geometry" />
        </mxCell>
        <mxCell id="fvSdaWqqt0YrtRtZSycq-62" style="edgeStyle=orthogonalEdgeStyle;rounded=1;orthogonalLoop=1;jettySize=auto;html=1;entryX=0.5;entryY=0;entryDx=0;entryDy=0;fillColor=#e1d5e7;strokeColor=#9673a6;exitX=0.525;exitY=0.938;exitDx=0;exitDy=0;exitPerimeter=0;" edge="1" parent="1" source="fvSdaWqqt0YrtRtZSycq-64" target="fvSdaWqqt0YrtRtZSycq-66">
          <mxGeometry relative="1" as="geometry">
            <Array as="points">
              <mxPoint x="1000" y="1140" />
              <mxPoint x="1000" y="1140" />
            </Array>
          </mxGeometry>
        </mxCell>
        <mxCell id="fvSdaWqqt0YrtRtZSycq-63" style="edgeStyle=orthogonalEdgeStyle;rounded=1;orthogonalLoop=1;jettySize=auto;html=1;exitX=0.5;exitY=1;exitDx=0;exitDy=0;fillColor=#fff2cc;strokeColor=#d6b656;" edge="1" parent="1" source="fvSdaWqqt0YrtRtZSycq-65" target="fvSdaWqqt0YrtRtZSycq-39">
          <mxGeometry relative="1" as="geometry" />
        </mxCell>
        <mxCell id="fvSdaWqqt0YrtRtZSycq-64" value="쪽지 페이지" style="shape=document;whiteSpace=wrap;html=1;boundedLbl=1;fillColor=#e1d5e7;strokeColor=#9673a6;gradientColor=#fdfcfc;rounded=1;" vertex="1" parent="1">
          <mxGeometry x="937" y="1025" width="120" height="80" as="geometry" />
        </mxCell>
        <mxCell id="fvSdaWqqt0YrtRtZSycq-65" value="나의 강좌" style="rounded=1;whiteSpace=wrap;html=1;fillColor=#fff2cc;strokeColor=#d6b656;gradientColor=#fcf7f7;" vertex="1" parent="1">
          <mxGeometry x="382.25" y="920" width="120" height="60" as="geometry" />
        </mxCell>
        <mxCell id="fvSdaWqqt0YrtRtZSycq-66" value="쪽지" style="rounded=1;whiteSpace=wrap;html=1;fillColor=#e1d5e7;strokeColor=#9673a6;gradientColor=#fdfcfc;" vertex="1" parent="1">
          <mxGeometry x="940" y="1200" width="120" height="60" as="geometry" />
        </mxCell>
        <mxCell id="fvSdaWqqt0YrtRtZSycq-67" style="edgeStyle=orthogonalEdgeStyle;rounded=1;orthogonalLoop=1;jettySize=auto;html=1;entryX=0.5;entryY=0;entryDx=0;entryDy=0;fillColor=#fff2cc;strokeColor=#d6b656;" edge="1" parent="1">
          <mxGeometry relative="1" as="geometry">
            <mxPoint x="262.2499999999991" y="1090" as="sourcePoint" />
            <mxPoint x="262.2499999999991" y="1090" as="targetPoint" />
          </mxGeometry>
        </mxCell>
        <mxCell id="fvSdaWqqt0YrtRtZSycq-68" value="관심 강의 검색&lt;br&gt;" style="rounded=1;whiteSpace=wrap;html=1;fillColor=#f8cecc;strokeColor=#b85450;gradientColor=#fffafa;" vertex="1" parent="1">
          <mxGeometry x="1031" y="485" width="120" height="60" as="geometry" />
        </mxCell>
        <mxCell id="fvSdaWqqt0YrtRtZSycq-69" style="edgeStyle=orthogonalEdgeStyle;rounded=1;orthogonalLoop=1;jettySize=auto;html=1;entryX=0.5;entryY=1;entryDx=0;entryDy=0;" edge="1" parent="1" source="fvSdaWqqt0YrtRtZSycq-60" target="fvSdaWqqt0YrtRtZSycq-15">
          <mxGeometry relative="1" as="geometry" />
        </mxCell>
        <mxCell id="fvSdaWqqt0YrtRtZSycq-70" style="edgeStyle=orthogonalEdgeStyle;rounded=1;orthogonalLoop=1;jettySize=auto;html=1;" edge="1" parent="1" source="fvSdaWqqt0YrtRtZSycq-75" target="fvSdaWqqt0YrtRtZSycq-90">
          <mxGeometry relative="1" as="geometry">
            <Array as="points">
              <mxPoint x="720" y="1000" />
              <mxPoint x="720" y="1000" />
            </Array>
          </mxGeometry>
        </mxCell>
        <mxCell id="fvSdaWqqt0YrtRtZSycq-71" style="edgeStyle=orthogonalEdgeStyle;rounded=1;orthogonalLoop=1;jettySize=auto;html=1;entryX=0;entryY=0.75;entryDx=0;entryDy=0;" edge="1" parent="1" target="fvSdaWqqt0YrtRtZSycq-31">
          <mxGeometry relative="1" as="geometry">
            <mxPoint x="881.5" y="1260" as="targetPoint" />
            <mxPoint x="851.5" y="1460" as="sourcePoint" />
            <Array as="points">
              <mxPoint x="882" y="1460" />
              <mxPoint x="882" y="1505" />
            </Array>
          </mxGeometry>
        </mxCell>
        <mxCell id="fvSdaWqqt0YrtRtZSycq-72" style="edgeStyle=orthogonalEdgeStyle;rounded=1;orthogonalLoop=1;jettySize=auto;html=1;entryX=0;entryY=0.5;entryDx=0;entryDy=0;fillColor=#e1d5e7;strokeColor=#9673a6;" edge="1" parent="1" target="fvSdaWqqt0YrtRtZSycq-64">
          <mxGeometry relative="1" as="geometry">
            <mxPoint x="880" y="1088" as="sourcePoint" />
          </mxGeometry>
        </mxCell>
        <mxCell id="fvSdaWqqt0YrtRtZSycq-73" style="edgeStyle=orthogonalEdgeStyle;rounded=1;orthogonalLoop=1;jettySize=auto;html=1;entryX=0.5;entryY=0;entryDx=0;entryDy=0;" edge="1" parent="1" source="fvSdaWqqt0YrtRtZSycq-60" target="fvSdaWqqt0YrtRtZSycq-25">
          <mxGeometry relative="1" as="geometry" />
        </mxCell>
        <mxCell id="fvSdaWqqt0YrtRtZSycq-74" style="edgeStyle=orthogonalEdgeStyle;rounded=1;orthogonalLoop=1;jettySize=auto;html=1;entryX=0.5;entryY=0;entryDx=0;entryDy=0;" edge="1" parent="1" source="fvSdaWqqt0YrtRtZSycq-75" target="fvSdaWqqt0YrtRtZSycq-28">
          <mxGeometry relative="1" as="geometry" />
        </mxCell>
        <mxCell id="fvSdaWqqt0YrtRtZSycq-75" value="회원정보 페이지" style="shape=document;whiteSpace=wrap;html=1;boundedLbl=1;fillColor=#e1d5e7;strokeColor=#9673a6;gradientColor=#fdfcfc;rounded=1;" vertex="1" parent="1">
          <mxGeometry x="760" y="1030" width="120" height="78" as="geometry" />
        </mxCell>
        <mxCell id="fvSdaWqqt0YrtRtZSycq-76" style="edgeStyle=orthogonalEdgeStyle;rounded=1;orthogonalLoop=1;jettySize=auto;html=1;fillColor=#f8cecc;strokeColor=#b85450;" edge="1" parent="1" source="fvSdaWqqt0YrtRtZSycq-79">
          <mxGeometry relative="1" as="geometry">
            <mxPoint x="1260" y="740" as="targetPoint" />
          </mxGeometry>
        </mxCell>
        <mxCell id="fvSdaWqqt0YrtRtZSycq-77" style="edgeStyle=orthogonalEdgeStyle;rounded=1;orthogonalLoop=1;jettySize=auto;html=1;exitX=1;exitY=0.5;exitDx=0;exitDy=0;fillColor=#f8cecc;strokeColor=#b85450;" edge="1" parent="1" source="fvSdaWqqt0YrtRtZSycq-79">
          <mxGeometry relative="1" as="geometry">
            <mxPoint x="1260" y="739.6153846153848" as="targetPoint" />
          </mxGeometry>
        </mxCell>
        <mxCell id="fvSdaWqqt0YrtRtZSycq-78" style="edgeStyle=orthogonalEdgeStyle;rounded=1;orthogonalLoop=1;jettySize=auto;html=1;exitX=1;exitY=0.25;exitDx=0;exitDy=0;entryX=0;entryY=0.5;entryDx=0;entryDy=0;fillColor=#f8cecc;strokeColor=#b85450;" edge="1" parent="1" source="fvSdaWqqt0YrtRtZSycq-79" target="fvSdaWqqt0YrtRtZSycq-89">
          <mxGeometry relative="1" as="geometry" />
        </mxCell>
        <mxCell id="fvSdaWqqt0YrtRtZSycq-79" value="스터디원과 경쟁" style="rounded=1;whiteSpace=wrap;html=1;fillColor=#f8cecc;strokeColor=#b85450;gradientColor=#fffafa;" vertex="1" parent="1">
          <mxGeometry x="1040" y="565" width="120" height="60" as="geometry" />
        </mxCell>
        <mxCell id="fvSdaWqqt0YrtRtZSycq-80" value="스트릭" style="rounded=1;whiteSpace=wrap;html=1;fillColor=#f8cecc;strokeColor=#b85450;gradientColor=#fbf4f4;" vertex="1" parent="1">
          <mxGeometry x="1300" y="545" width="120" height="60" as="geometry" />
        </mxCell>
        <mxCell id="fvSdaWqqt0YrtRtZSycq-81" style="edgeStyle=orthogonalEdgeStyle;rounded=1;orthogonalLoop=1;jettySize=auto;html=1;exitX=1;exitY=0.5;exitDx=0;exitDy=0;entryX=0;entryY=0.5;entryDx=0;entryDy=0;fontSize=31;fillColor=#f8cecc;strokeColor=#b85450;" edge="1" parent="1" source="fvSdaWqqt0YrtRtZSycq-83" target="fvSdaWqqt0YrtRtZSycq-87">
          <mxGeometry relative="1" as="geometry" />
        </mxCell>
        <mxCell id="fvSdaWqqt0YrtRtZSycq-82" style="edgeStyle=orthogonalEdgeStyle;rounded=1;orthogonalLoop=1;jettySize=auto;html=1;exitX=1;exitY=0.5;exitDx=0;exitDy=0;entryX=0;entryY=0.5;entryDx=0;entryDy=0;fontSize=31;fillColor=#f8cecc;strokeColor=#b85450;" edge="1" parent="1" source="fvSdaWqqt0YrtRtZSycq-83" target="fvSdaWqqt0YrtRtZSycq-88">
          <mxGeometry relative="1" as="geometry" />
        </mxCell>
        <mxCell id="fvSdaWqqt0YrtRtZSycq-83" value="스터디 시작&lt;br&gt;" style="rounded=1;whiteSpace=wrap;html=1;fillColor=#f8cecc;strokeColor=#b85450;gradientColor=#fffafa;" vertex="1" parent="1">
          <mxGeometry x="1040" y="645" width="120" height="60" as="geometry" />
        </mxCell>
        <mxCell id="fvSdaWqqt0YrtRtZSycq-84" value="" style="edgeStyle=orthogonalEdgeStyle;rounded=1;orthogonalLoop=1;jettySize=auto;html=1;fillColor=#f8cecc;strokeColor=#b85450;" edge="1" parent="1" source="fvSdaWqqt0YrtRtZSycq-87" target="fvSdaWqqt0YrtRtZSycq-91">
          <mxGeometry relative="1" as="geometry" />
        </mxCell>
        <mxCell id="fvSdaWqqt0YrtRtZSycq-85" style="edgeStyle=orthogonalEdgeStyle;rounded=1;orthogonalLoop=1;jettySize=auto;html=1;exitX=1;exitY=0.75;exitDx=0;exitDy=0;entryX=0;entryY=0.5;entryDx=0;entryDy=0;fillColor=#f8cecc;strokeColor=#b85450;" edge="1" parent="1" source="fvSdaWqqt0YrtRtZSycq-87" target="fvSdaWqqt0YrtRtZSycq-92">
          <mxGeometry relative="1" as="geometry">
            <Array as="points">
              <mxPoint x="1410" y="960" />
            </Array>
          </mxGeometry>
        </mxCell>
        <mxCell id="fvSdaWqqt0YrtRtZSycq-86" style="edgeStyle=orthogonalEdgeStyle;rounded=1;orthogonalLoop=1;jettySize=auto;html=1;exitX=0.75;exitY=1;exitDx=0;exitDy=0;fillColor=#f8cecc;strokeColor=#b85450;" edge="1" parent="1" source="fvSdaWqqt0YrtRtZSycq-87" target="fvSdaWqqt0YrtRtZSycq-94">
          <mxGeometry relative="1" as="geometry">
            <Array as="points">
              <mxPoint x="1320" y="1020" />
              <mxPoint x="1490" y="1020" />
            </Array>
          </mxGeometry>
        </mxCell>
        <mxCell id="fvSdaWqqt0YrtRtZSycq-87" value="같이 강의 보기&lt;br&gt;" style="rounded=1;whiteSpace=wrap;html=1;fillColor=#f8cecc;strokeColor=#b85450;gradientColor=#fffafa;" vertex="1" parent="1">
          <mxGeometry x="1290" y="645" width="120" height="60" as="geometry" />
        </mxCell>
        <mxCell id="fvSdaWqqt0YrtRtZSycq-88" value="질문 공유, 대답" style="rounded=1;whiteSpace=wrap;html=1;fillColor=#f8cecc;strokeColor=#b85450;gradientColor=#fffafa;" vertex="1" parent="1">
          <mxGeometry x="1200" y="740" width="120" height="60" as="geometry" />
        </mxCell>
        <mxCell id="fvSdaWqqt0YrtRtZSycq-89" value="스터디 뱃지" style="whiteSpace=wrap;html=1;rounded=1;fillColor=#f8cecc;strokeColor=#b85450;gradientColor=#fbf4f4;" vertex="1" parent="1">
          <mxGeometry x="1300" y="450" width="120" height="60" as="geometry" />
        </mxCell>
        <mxCell id="fvSdaWqqt0YrtRtZSycq-90" value="스터디 팟 페이지" style="shape=document;whiteSpace=wrap;html=1;boundedLbl=1;fillColor=#f8cecc;strokeColor=#b85450;gradientColor=#fffafa;rounded=1;" vertex="1" parent="1">
          <mxGeometry x="680" y="670" width="120" height="90" as="geometry" />
        </mxCell>
        <mxCell id="fvSdaWqqt0YrtRtZSycq-91" value="실시간채팅" style="whiteSpace=wrap;html=1;rounded=1;fillColor=#f8cecc;strokeColor=#b85450;gradientColor=#fbf4f4;" vertex="1" parent="1">
          <mxGeometry x="1430" y="790" width="120" height="60" as="geometry" />
        </mxCell>
        <mxCell id="fvSdaWqqt0YrtRtZSycq-92" value="강의 시간 북마크" style="whiteSpace=wrap;html=1;rounded=1;fillColor=#f8cecc;strokeColor=#b85450;gradientColor=#fbf4f4;" vertex="1" parent="1">
          <mxGeometry x="1430" y="930" width="120" height="60" as="geometry" />
        </mxCell>
        <mxCell id="fvSdaWqqt0YrtRtZSycq-93" value="" style="edgeStyle=orthogonalEdgeStyle;rounded=1;orthogonalLoop=1;jettySize=auto;html=1;fillColor=#f8cecc;strokeColor=#b85450;" edge="1" parent="1" source="fvSdaWqqt0YrtRtZSycq-94" target="fvSdaWqqt0YrtRtZSycq-98">
          <mxGeometry relative="1" as="geometry" />
        </mxCell>
        <mxCell id="fvSdaWqqt0YrtRtZSycq-94" value="강좌 필기" style="whiteSpace=wrap;html=1;rounded=1;fillColor=#f8cecc;strokeColor=#b85450;gradientColor=#fbf4f4;" vertex="1" parent="1">
          <mxGeometry x="1430" y="1070" width="120" height="60" as="geometry" />
        </mxCell>
        <mxCell id="fvSdaWqqt0YrtRtZSycq-95" style="edgeStyle=orthogonalEdgeStyle;rounded=1;orthogonalLoop=1;jettySize=auto;html=1;entryX=0.5;entryY=0;entryDx=0;entryDy=0;fillColor=#fff2cc;strokeColor=#d6b656;" edge="1" parent="1" source="fvSdaWqqt0YrtRtZSycq-97" target="fvSdaWqqt0YrtRtZSycq-100">
          <mxGeometry relative="1" as="geometry" />
        </mxCell>
        <mxCell id="fvSdaWqqt0YrtRtZSycq-96" style="edgeStyle=orthogonalEdgeStyle;rounded=1;orthogonalLoop=1;jettySize=auto;html=1;exitX=1;exitY=0.5;exitDx=0;exitDy=0;entryX=0;entryY=0.5;entryDx=0;entryDy=0;fillColor=#fff2cc;strokeColor=#d6b656;" edge="1" parent="1" source="fvSdaWqqt0YrtRtZSycq-97" target="fvSdaWqqt0YrtRtZSycq-65">
          <mxGeometry relative="1" as="geometry" />
        </mxCell>
        <mxCell id="fvSdaWqqt0YrtRtZSycq-97" value="전체 강좌 페이지" style="shape=document;whiteSpace=wrap;html=1;boundedLbl=1;fillColor=#fff2cc;strokeColor=#d6b656;gradientColor=#fcf7f7;rounded=1;" vertex="1" parent="1">
          <mxGeometry x="222.25" y="905" width="120" height="90" as="geometry" />
        </mxCell>
        <mxCell id="fvSdaWqqt0YrtRtZSycq-98" value="강좌 캡쳐" style="whiteSpace=wrap;html=1;rounded=1;fillColor=#f8cecc;strokeColor=#b85450;gradientColor=#fbf4f4;" vertex="1" parent="1">
          <mxGeometry x="1230" y="1070" width="120" height="60" as="geometry" />
        </mxCell>
        <mxCell id="fvSdaWqqt0YrtRtZSycq-99" value="" style="edgeStyle=orthogonalEdgeStyle;rounded=1;orthogonalLoop=1;jettySize=auto;html=1;exitX=0.5;exitY=1;exitDx=0;exitDy=0;entryX=0.5;entryY=0;entryDx=0;entryDy=0;endArrow=none;fillColor=#dae8fc;strokeColor=#6c8ebf;" edge="1" parent="1" source="fvSdaWqqt0YrtRtZSycq-9" target="fvSdaWqqt0YrtRtZSycq-59">
          <mxGeometry relative="1" as="geometry">
            <mxPoint x="535" y="270" as="sourcePoint" />
            <mxPoint x="535" y="770" as="targetPoint" />
          </mxGeometry>
        </mxCell>
        <mxCell id="fvSdaWqqt0YrtRtZSycq-100" value="강좌 추천 받기" style="rounded=1;whiteSpace=wrap;html=1;fillColor=#fff2cc;strokeColor=#d6b656;" vertex="1" parent="1">
          <mxGeometry x="222.25" y="1030" width="120" height="60" as="geometry" />
        </mxCell>
        <mxCell id="fvSdaWqqt0YrtRtZSycq-101" value="스터디 초대하기" style="rounded=1;whiteSpace=wrap;html=1;fillColor=#f8cecc;strokeColor=#b85450;gradientColor=#fffafa;" vertex="1" parent="1">
          <mxGeometry x="1031" y="320" width="120" height="60" as="geometry" />
        </mxCell>
        <mxCell id="fvSdaWqqt0YrtRtZSycq-102" value="공지사항" style="shape=document;whiteSpace=wrap;html=1;boundedLbl=1;rounded=1;" vertex="1" parent="1">
          <mxGeometry x="-60" y="840" width="120" height="80" as="geometry" />
        </mxCell>
        <mxCell id="fvSdaWqqt0YrtRtZSycq-103" value="강좌 공유하기" style="rounded=1;whiteSpace=wrap;html=1;fillColor=#fff2cc;strokeColor=#d6b656;gradientColor=#fcf7f7;" vertex="1" parent="1">
          <mxGeometry x="250" y="1167" width="120" height="60" as="geometry" />
        </mxCell>
        <mxCell id="fvSdaWqqt0YrtRtZSycq-104" value="&lt;span style=&quot;font-size: 12px;&quot;&gt;FAQ &amp;amp; QNA&lt;/span&gt;" style="shape=document;whiteSpace=wrap;html=1;boundedLbl=1;fontSize=31;rounded=1;" vertex="1" parent="1">
          <mxGeometry x="140" y="660" width="120" height="80" as="geometry" />
        </mxCell>
        <mxCell id="fvSdaWqqt0YrtRtZSycq-105" style="edgeStyle=orthogonalEdgeStyle;rounded=0;orthogonalLoop=1;jettySize=auto;html=1;entryX=0;entryY=0.5;entryDx=0;entryDy=0;fillColor=#f8cecc;strokeColor=#b85450;" edge="1" parent="1" source="fvSdaWqqt0YrtRtZSycq-79" target="fvSdaWqqt0YrtRtZSycq-80">
          <mxGeometry relative="1" as="geometry" />
        </mxCell>
      </root>
    </mxGraphModel>
  </diagram>
</mxfile>
